<?xml version="1.0" encoding="UTF-8" standalone="no"?>
<!-- Created with Inkscape (http://www.inkscape.org/) -->

<svg
   width="210mm"
   height="297mm"
   viewBox="0 0 210 297"
   version="1.1"
   id="svg5"
   xml:space="preserve"
   inkscape:version="1.2.2 (b0a8486541, 2022-12-01)"
   sodipodi:docname="icon.svg"
   xmlns:inkscape="http://www.inkscape.org/namespaces/inkscape"
   xmlns:sodipodi="http://sodipodi.sourceforge.net/DTD/sodipodi-0.dtd"
   xmlns="http://www.w3.org/2000/svg"
   xmlns:svg="http://www.w3.org/2000/svg"><sodipodi:namedview
     id="namedview7"
     pagecolor="#ffffff"
     bordercolor="#000000"
     borderopacity="0.25"
     inkscape:showpageshadow="2"
     inkscape:pageopacity="0.0"
     inkscape:pagecheckerboard="0"
     inkscape:deskcolor="#d1d1d1"
     inkscape:document-units="mm"
     showgrid="false"
     inkscape:zoom="0.53039953"
     inkscape:cx="392.15721"
     inkscape:cy="645.73964"
     inkscape:window-width="1854"
     inkscape:window-height="1011"
     inkscape:window-x="66"
     inkscape:window-y="32"
     inkscape:window-maximized="1"
     inkscape:current-layer="layer1" /><defs
     id="defs2" /><g
     inkscape:label="Camada 1"
     inkscape:groupmode="layer"
     id="layer1"><g
       id="g4379"
       transform="matrix(3.8201469,0,0,3.8201469,-87.42946,-327.92024)"
       style="fill:#1c2d58;fill-opacity:1"><path
         style="fill:#1c2d58;fill-opacity:1;stroke-width:0.264583"
         d="m 48.047932,101.17035 14.587967,-0.0517 c 0.434988,5.08649 -2.421133,7.0304 -3.58416,7.72548 l -19.055527,10.65746 -0.0296,-10.08124 c 0.718037,-5.21715 4.856902,-7.97291 8.081317,-8.25 z"
         id="path2060"
         sodipodi:nodetypes="ccccccc" /><path
         style="fill:#1c2d58;fill-opacity:1;stroke-width:0.264583"
         d="m 40.105298,125.10984 c 0.0892,-1.97252 1.003556,-3.96474 3.865184,-5.53261 l 11.187154,-6.10526 c 1.828342,-0.81599 3.0184,-1.03951 5.235637,-0.79388 l 0.02396,4.98041 c -0.28222,4.10309 -3.117487,5.55631 -3.83936,6.13504 l -16.412464,9.51842 z"
         id="path4372"
         sodipodi:nodetypes="cccccccc" /><path
         style="fill:#1c2d58;fill-opacity:1;stroke-width:0.264583"
         d="m 40.112772,136.53456 c -0.03287,-1.44967 6.114427,-4.90964 8.442664,-5.96626 l 0.03381,4.90779 c -0.157497,2.26471 -1.325988,5.86359 -6.20641,7.49157 -0.70448,0.16862 -1.229275,0.23986 -2.320016,0.0138 z"
         id="path4374"
         sodipodi:nodetypes="cccccc" /></g></g></svg>
